<svg enable-background="new 0 0 512 512" viewBox="0 0 512 512" xmlns="http://www.w3.org/2000/svg"><g id="_x33_2_x2C__embed_x2C__scripts_x2C__development_x2C__seo_and_web_x2C__digital_x2C__html"><g><circle cx="256" cy="256" fill="#89ccff" r="240"/><g fill="#2169ac"><path d="m256 1c-140.951 0-255 114.068-255 255 0 140.951 114.068 255 255 255 140.951 0 255-114.068 255-255 0-140.951-114.068-255-255-255zm0 480c-124.065 0-225-100.935-225-225s100.935-225 225-225 225 100.935 225 225-100.935 225-225 225z"/><path d="m356.606 155.394c-5.857-5.857-15.355-5.857-21.213 0l-180 180c-5.858 5.857-5.858 15.355 0 21.213 5.858 5.857 15.354 5.858 21.213 0l180-180c5.859-5.858 5.859-15.356 0-21.213z"/><path d="m207.98 234.32c4.596-6.893 2.733-16.206-4.16-20.801l-26.278-17.519 26.278-17.52c6.894-4.595 8.756-13.908 4.16-20.801-4.596-6.894-13.909-8.755-20.801-4.16l-45 30c-8.911 5.939-8.885 19.039 0 24.961l45 30c6.887 4.591 16.202 2.742 20.801-4.16z"/><path d="m369.82 303.52-45-30c-6.893-4.595-16.206-2.733-20.801 4.16-4.596 6.893-2.733 16.206 4.16 20.801l26.279 17.519-26.278 17.52c-6.894 4.595-8.756 13.908-4.16 20.801 4.616 6.923 13.938 8.737 20.801 4.16l45-30c8.911-5.94 8.884-19.04-.001-24.961z"/></g></g></g><g id="Layer_1"/></svg>