<svg id="Capa_1" enable-background="new 0 0 512 512" height="512" viewBox="0 0 512 512" width="512" xmlns="http://www.w3.org/2000/svg"><g><g><g><g><g><g><g><path d="m324.765 512h-234.882c-22.758 0-41.207-18.449-41.207-41.207v-429.586c0-22.758 18.449-41.207 41.207-41.207h234.881c22.758 0 41.207 18.449 41.207 41.207v429.586c.001 22.758-18.448 41.207-41.206 41.207z" fill="#3d6d93"/><path d="m324.765 0h-30.905c22.758 0 41.207 18.449 41.207 41.207v429.586c0 22.758-18.449 41.207-41.207 41.207h30.905c22.758 0 41.207-18.449 41.207-41.207v-429.586c0-22.758-18.449-41.207-41.207-41.207z" fill="#335e80"/><path d="m282.994 39.147c0 7.692-6.235 13.927-13.927 13.927h-123.486c-7.692 0-13.927-6.235-13.927-13.927 0-4.552-3.69-8.241-8.241-8.241h-28.379c-8.534 0-15.453 6.918-15.453 15.453v419.284c0 8.534 6.918 15.453 15.453 15.453h224.579c8.534 0 15.453-6.918 15.453-15.453v-419.285c0-8.534-6.918-15.453-15.453-15.453h-28.379c-4.55 0-8.24 3.69-8.24 8.242z" fill="#f9f7f8"/></g><circle cx="207.324" cy="26.537" fill="#335e80" r="7.726"/></g></g></g></g></g><g><g><g><path d="m125.94 153.637c-4.267 0-7.726-3.459-7.726-7.726v-25.894c0-8.236 6.701-14.938 14.938-14.938h25.894c4.267 0 7.726 3.459 7.726 7.726 0 4.268-3.459 7.726-7.726 7.726h-25.379v25.379c-.001 4.268-3.46 7.727-7.727 7.727z" fill="#8fd8fa"/></g><g><path d="m288.708 153.637c-4.267 0-7.726-3.459-7.726-7.726v-25.379h-25.379c-4.267 0-7.726-3.459-7.726-7.726 0-4.268 3.459-7.726 7.726-7.726h25.894c8.236 0 14.938 6.701 14.938 14.938v25.894c0 4.266-3.46 7.725-7.727 7.725z" fill="#8fd8fa"/></g></g><g><g><path d="m159.045 283.3h-25.894c-8.236 0-14.938-6.701-14.938-14.938v-25.894c0-4.268 3.459-7.726 7.726-7.726s7.726 3.459 7.726 7.726v25.379h25.379c4.267 0 7.726 3.459 7.726 7.726.001 4.268-3.458 7.727-7.725 7.727z" fill="#8fd8fa"/></g><g><path d="m281.497 283.3h-25.894c-4.267 0-7.726-3.459-7.726-7.726 0-4.268 3.459-7.726 7.726-7.726h25.379v-25.379c0-4.268 3.459-7.726 7.726-7.726s7.726 3.459 7.726 7.726v25.894c.001 8.236-6.701 14.937-14.937 14.937z" fill="#8fd8fa"/></g></g><path d="m160.966 176.816h24.864c2.276 0 4.121-1.845 4.121-4.121v-24.864c0-2.276-1.845-4.121-4.121-4.121h-24.864c-2.276 0-4.121 1.845-4.121 4.121v24.864c0 2.276 1.845 4.121 4.121 4.121z" fill="#8fd8fa"/><path d="m228.818 176.816h24.864c2.276 0 4.121-1.845 4.121-4.121v-24.864c0-2.276-1.845-4.121-4.121-4.121h-24.864c-2.276 0-4.121 1.845-4.121 4.121v24.864c0 2.276 1.845 4.121 4.121 4.121z" fill="#8fd8fa"/><path d="m253.682 143.71h-15.453c2.276 0 4.121 1.845 4.121 4.121v24.864c0 2.276-1.845 4.121-4.121 4.121h15.453c2.276 0 4.121-1.845 4.121-4.121v-24.864c0-2.276-1.845-4.121-4.121-4.121z" fill="#6bcdfe"/><path d="m185.83 143.71h-15.453c2.276 0 4.121 1.845 4.121 4.121v24.864c0 2.276-1.845 4.121-4.121 4.121h15.453c2.276 0 4.121-1.845 4.121-4.121v-24.864c-.001-2.276-1.845-4.121-4.121-4.121z" fill="#6bcdfe"/><path d="m160.966 244.668h24.864c2.276 0 4.121-1.845 4.121-4.121v-24.864c0-2.276-1.845-4.121-4.121-4.121h-24.864c-2.276 0-4.121 1.845-4.121 4.121v24.864c0 2.276 1.845 4.121 4.121 4.121z" fill="#8fd8fa"/><path d="m216.971 203.836h15.453v15.453h-15.453z" fill="#8fd8fa"/><g><path d="m257.803 230.133c-4.267 0-7.726-3.459-7.726-7.726v-10.844c0-4.268 3.459-7.726 7.726-7.726s7.726 3.459 7.726 7.726v10.844c0 4.267-3.459 7.726-7.726 7.726z" fill="#8fd8fa"/></g><g><path d="m257.803 252.394h-33.105c-4.267 0-7.726-3.459-7.726-7.726 0-4.268 3.459-7.726 7.726-7.726h33.105c4.267 0 7.726 3.459 7.726 7.726 0 4.268-3.459 7.726-7.726 7.726z" fill="#8fd8fa"/></g><path d="m185.83 211.563h-15.453c2.276 0 4.121 1.845 4.121 4.121v24.864c0 2.276-1.845 4.121-4.121 4.121h15.453c2.276 0 4.121-1.845 4.121-4.121v-24.864c-.001-2.277-1.845-4.121-4.121-4.121z" fill="#6bcdfe"/></g><g><path d="m446.841 430.616h-264.454c-9.103 0-16.483-7.38-16.483-16.483v-73.088c0-9.103 7.38-16.483 16.483-16.483h264.454c9.103 0 16.483 7.38 16.483 16.483v73.088c0 9.103-7.38 16.483-16.483 16.483z" fill="#f58a97"/><path d="m446.841 324.562h-30.905c9.103 0 16.483 7.38 16.483 16.483v73.088c0 9.103-7.38 16.483-16.483 16.483h30.905c9.103 0 16.483-7.38 16.483-16.483v-73.088c0-9.103-7.38-16.483-16.483-16.483z" fill="#f07281"/><g fill="#fff"><path d="m354.5 350.646c-1.311-3.444-4.594-5.697-8.274-5.697-.003 0-.007 0-.01 0-3.645 0-6.969 2.248-8.256 5.678l-18.71 49.127c-1.519 3.987.482 8.451 4.47 9.97 3.991 1.52 8.451-.484 9.97-4.471l2.764-7.258h19.396l2.731 7.236c1.52 4.041 6.049 5.974 9.957 4.5 3.992-1.506 6.008-5.964 4.501-9.957zm-12.159 31.896 3.857-10.128 3.822 10.128z"/><path d="m439.197 352.601c-.041-4.241-3.492-7.652-7.724-7.652-.025 0-.051 0-.076 0-4.267.041-7.693 3.534-7.651 7.801l.246 25.478-20.615-29.85c-1.922-2.783-5.429-3.993-8.657-2.986-3.228 1.006-5.427 3.995-5.427 7.376v49.735c0 4.268 3.459 7.726 7.726 7.726s7.726-3.459 7.726-7.726v-24.951l19.545 28.302c2.21 3.195 5.923 4.546 9.456 3.447 3.594-1.122 5.916-4.449 5.916-8.551z"/><path d="m305.148 389.55c-3.27-2.741-8.143-2.316-10.885.954-.389.464-.807.895-1.242 1.283-2.227 1.984-5.099 2.99-8.535 2.99-9.477 0-17.188-7.71-17.188-17.188 0-9.477 7.71-17.187 17.188-17.187 3.446 0 6.767 1.013 9.605 2.931 3.536 2.388 8.339 1.459 10.727-2.077 2.389-3.536 1.459-8.339-2.077-10.727-5.402-3.65-11.715-5.578-18.255-5.578-17.998 0-32.64 14.642-32.64 32.64s14.642 32.641 32.64 32.641c7.237 0 13.742-2.387 18.813-6.903.991-.882 1.934-1.855 2.802-2.89 2.743-3.272 2.316-8.146-.953-10.889z"/><path d="m221.656 370.733c-5.858-2.161-11.33-4.509-13.275-5.357-.572-.546-.622-1.234-.548-1.749.181-1.258 1.242-2.268 2.914-2.772 6.206-1.865 12.114 2.724 12.334 2.897 3.266 2.702 8.104 2.267 10.836-.984 2.745-3.267 2.323-8.141-.943-10.886-4.509-3.789-15.202-9.277-26.685-5.823-7.444 2.242-12.713 8.133-13.752 15.371-.98 6.829 1.981 13.398 7.729 17.145 2.744 1.789 6.241 3.037 16.042 6.655 2.944 1.087 5.955 3 5.577 5.116-.319 1.787-2.838 4.431-7.23 4.431-4.537 0-8.888-1.813-11.639-4.848-2.865-3.162-7.752-3.402-10.913-.537-3.162 2.865-3.402 7.751-.537 10.913 5.716 6.307 14.132 9.925 23.09 9.925 11.228 0 20.666-7.22 22.442-17.167 1.347-7.545-2.002-17.373-15.442-22.33z"/></g></g></g></svg>