<svg id="Outline" height="512" viewBox="0 0 64 64" width="512" xmlns="http://www.w3.org/2000/svg"><path fill="#4f46e5" d="m56.33 17.33c-.5-.62-1.22-1.01-2.02-1.1l-14.31-1.5v-8.73c0-1.65-1.35-3-3-3h-27c-1.65 0-3 1.35-3 3v39c0 1.65 1.35 3 3 3h10.81l-.72 6.86c-.17 1.64 1.03 3.12 2.67 3.3l26.85 2.82c.11.01.21.02.32.02.68 0 1.34-.23 1.88-.67.62-.5 1.01-1.22 1.1-2.02l4.08-38.79c.08-.8-.15-1.58-.65-2.2zm-46.33 28.67c-.55 0-1-.45-1-1v-39c0-.55.45-1 1-1h27c.55 0 1 .45 1 1v8.52l-10.54-1.11c-.8-.08-1.58.15-2.2.65s-1.01 1.22-1.1 2.02l-3.14 29.92zm40.92 12.1c-.03.27-.16.5-.37.67s-.47.24-.73.22l-26.85-2.82c-.55-.06-.95-.55-.89-1.1l4.08-38.79c.03-.27.16-.5.36-.67.21-.17.47-.25.73-.22l26.85 2.82c.27.03.5.16.67.36.17.21.25.47.22.73l-4.08 38.79z"/></svg>