<?xml version="1.0" encoding="utf-8"?>
<!-- Generator: Adobe Illustrator 27.6.0, SVG Export Plug-In . SVG Version: 6.00 Build 0)  -->
<svg version="1.1" id="Layer_1" xmlns="http://www.w3.org/2000/svg" xmlns:xlink="http://www.w3.org/1999/xlink" x="0px" y="0px"
	 viewBox="0 0 426 426" style="enable-background:new 0 0 426 426;" xml:space="preserve">
<path d="M420.1,171.9l-58-29V32.3c0-5.9-4.8-10.7-10.7-10.7H74.6c-5.9,0-10.7,4.8-10.7,10.7v110.6l-58,29c-3.6,1.8-5.9,5.5-5.9,9.5
	v191.7c0,17.6,14.3,31.9,32,32h362.1c17.6,0,31.9-14.3,32-32V181.4C426,177.3,423.7,173.7,420.1,171.9z M389.9,180.6l-27.8,11.7
	v-25.6L389.9,180.6z M340.8,42.9v158.3L213,255L85.2,201.2V42.9H340.8z M63.9,192.2l-27.8-11.7l27.8-13.9V192.2z M394.1,383.7H32
	c-5.9,0-10.6-4.8-10.7-10.7V197.4l187.6,79c2.6,1.1,5.6,1.1,8.3,0l187.6-79v175.7C404.7,379,399.9,383.7,394.1,383.7z"/>
<path d="M272.2,123.2c-0.8-2.4-2.9-4.1-5.4-4.3l-34.3-3.1L218.8,84c-1-2.3-3.3-3.8-5.8-3.8c-2.5,0-4.8,1.5-5.8,3.8l-13.6,31.8
	l-34.3,3.1c-2.5,0.2-4.6,1.9-5.4,4.3c-0.8,2.4-0.1,5.1,1.8,6.7l26,22.8l-7.7,33.7c-0.6,2.5,0.4,5,2.5,6.5c1.1,0.8,2.4,1.2,3.7,1.2
	c1.1,0,2.2-0.3,3.2-0.9l29.6-17.7l29.6,17.7c2.2,1.3,4.9,1.2,7-0.3c2.1-1.5,3-4,2.5-6.5l-7.7-33.7l26-22.8
	C272.2,128.2,273,125.6,272.2,123.2z"/>
</svg>
