<?xml version="1.0" encoding="utf-8"?>
<!-- Generator: Adobe Illustrator 27.6.0, SVG Export Plug-In . SVG Version: 6.00 Build 0)  -->
<svg version="1.1" id="Capa_1" xmlns="http://www.w3.org/2000/svg" xmlns:xlink="http://www.w3.org/1999/xlink" x="0px" y="0px"
	 viewBox="0 0 61.4 61.4" style="enable-background:new 0 0 61.4 61.4;" xml:space="preserve">
<g>
	<g id="group-41svg">
		<path id="path-1_33_" d="M51.5,61.2H49c-0.8,0-1.5-0.7-1.5-1.5c0-0.8,0.7-1.5,1.5-1.5h2.4c0.7,0,1.4-0.1,2.1-0.3
			c0.8-0.3,1.6,0.2,1.9,1c0.3,0.8-0.2,1.6-0.9,1.9C53.5,61,52.5,61.2,51.5,61.2z M44,61.2h-5c-0.8,0-1.5-0.7-1.5-1.5
			c0-0.8,0.7-1.5,1.5-1.5h5c0.8,0,1.5,0.7,1.5,1.5C45.5,60.5,44.9,61.2,44,61.2z M34,61.2h-5c-0.8,0-1.5-0.7-1.5-1.5
			c0-0.8,0.7-1.5,1.5-1.5h5c0.8,0,1.5,0.7,1.5,1.5C35.5,60.5,34.9,61.2,34,61.2z M24,61.2h-5c-0.8,0-1.5-0.7-1.5-1.5
			c0-0.8,0.7-1.5,1.5-1.5h5c0.8,0,1.5,0.7,1.5,1.5C25.5,60.5,24.9,61.2,24,61.2z M14,61.2H9.5c-0.2,0-0.3,0-0.5,0
			c-0.8,0-1.5-0.8-1.4-1.6s0.7-1.5,1.6-1.4c0.1,0,0.2,0,0.4,0H14c0.8,0,1.5,0.7,1.5,1.5C15.5,60.5,14.9,61.2,14,61.2z M4.4,59.4
			c-0.3,0-0.7-0.1-0.9-0.3c-1.6-1.3-2.7-3-3.2-4.9c-0.2-0.8,0.3-1.6,1-1.8c0.8-0.2,1.6,0.3,1.8,1.1c0.4,1.3,1.1,2.5,2.2,3.3
			c0.6,0.5,0.7,1.5,0.2,2.1C5.3,59.2,4.9,59.4,4.4,59.4z M57.9,57.9c-0.3,0-0.6-0.1-0.9-0.3c-0.7-0.5-0.8-1.4-0.3-2.1
			c0.8-1.1,1.2-2.4,1.2-3.8c0-0.8,0.7-1.5,1.5-1.5s1.5,0.7,1.5,1.5c0,2-0.6,3.9-1.8,5.6C58.9,57.7,58.4,57.9,57.9,57.9z M1.9,50.3
			c-0.8,0-1.5-0.7-1.5-1.5v-5c0-0.8,0.7-1.5,1.5-1.5s1.5,0.7,1.5,1.5v5C3.4,49.7,2.7,50.3,1.9,50.3z M59.9,49.9
			c-0.8,0-1.5-0.7-1.5-1.5v-5c0-0.8,0.7-1.5,1.5-1.5s1.5,0.7,1.5,1.5v5C61.4,49.2,60.7,49.9,59.9,49.9z M1.9,40.3
			c-0.8,0-1.5-0.7-1.5-1.5v-5c0-0.8,0.7-1.5,1.5-1.5s1.5,0.7,1.5,1.5v5C3.4,39.7,2.7,40.3,1.9,40.3z M59.9,39.9
			c-0.8,0-1.5-0.7-1.5-1.5v-5c0-0.8,0.7-1.5,1.5-1.5s1.5,0.7,1.5,1.5v5C61.4,39.2,60.7,39.9,59.9,39.9z M1.9,30.3
			c-0.8,0-1.5-0.7-1.5-1.5v-5c0-0.8,0.7-1.5,1.5-1.5s1.5,0.7,1.5,1.5v5C3.4,29.7,2.7,30.3,1.9,30.3z M59.9,29.9
			c-0.8,0-1.5-0.7-1.5-1.5v-5c0-0.8,0.7-1.5,1.5-1.5s1.5,0.7,1.5,1.5v5C61.4,29.2,60.7,29.9,59.9,29.9z M1.9,20.3
			c-0.8,0-1.5-0.7-1.5-1.5v-5c0-0.8,0.7-1.5,1.5-1.5s1.5,0.7,1.5,1.5v5C3.4,19.7,2.7,20.3,1.9,20.3z M59.9,19.9
			c-0.8,0-1.5-0.7-1.5-1.5v-5c0-0.8,0.7-1.5,1.5-1.5s1.5,0.7,1.5,1.5v5C61.4,19.2,60.7,19.9,59.9,19.9z M1.5,10.3
			c-0.1,0-0.1,0-0.2,0C0.5,10.2-0.1,9.5,0,8.7c0.2-2,1-3.8,2.4-5.3c0.6-0.6,1.5-0.7,2.1-0.1c0.6,0.6,0.7,1.5,0.1,2.1
			C3.7,6.4,3.1,7.6,3,9C2.9,9.7,2.3,10.3,1.5,10.3z M59.4,9.9c-0.7,0-1.4-0.5-1.5-1.3c-0.2-1.4-0.8-2.6-1.8-3.6
			c-0.6-0.6-0.6-1.5,0-2.1s1.5-0.6,2.1,0c1.4,1.4,2.3,3.2,2.7,5.2C61,9,60.4,9.7,59.6,9.9C59.5,9.9,59.4,9.9,59.4,9.9z M7.8,3.4
			c-0.7,0-1.3-0.5-1.5-1.2C6.1,1.4,6.6,0.6,7.4,0.4c0.7-0.1,1.3-0.2,2-0.2h3.3c0.8,0,1.5,0.7,1.5,1.5c0,0.8-0.7,1.5-1.5,1.5H9.5
			c-0.5,0-0.9,0-1.4,0.1C8,3.3,7.9,3.4,7.8,3.4z M52.7,3.3c-0.1,0-0.2,0-0.2,0c-0.3-0.1-0.7-0.1-1-0.1h-3.7c-0.8,0-1.5-0.7-1.5-1.5
			c0-0.8,0.7-1.5,1.5-1.5h3.7c0.5,0,1,0,1.5,0.1c0.8,0.1,1.4,0.9,1.2,1.7C54.1,2.7,53.5,3.3,52.7,3.3z M42.7,3.2h-5
			c-0.8,0-1.5-0.7-1.5-1.5c0-0.8,0.7-1.5,1.5-1.5h5c0.8,0,1.5,0.7,1.5,1.5C44.2,2.5,43.6,3.2,42.7,3.2z M32.7,3.2h-5
			c-0.8,0-1.5-0.7-1.5-1.5c0-0.8,0.7-1.5,1.5-1.5h5c0.8,0,1.5,0.7,1.5,1.5C34.2,2.5,33.6,3.2,32.7,3.2z M22.7,3.2h-5
			c-0.8,0-1.5-0.7-1.5-1.5c0-0.8,0.7-1.5,1.5-1.5h5c0.8,0,1.5,0.7,1.5,1.5C24.2,2.5,23.6,3.2,22.7,3.2z"/>
	</g>
</g>
<g>
	<circle cx="30.7" cy="20.7" r="8.7"/>
	<path d="M36.9,31.9H24.5c-5.5,0-10,4.5-10,10v6.2c0,0.7,0.6,1.2,1.2,1.2h29.9c0.7,0,1.2-0.6,1.2-1.2V42
		C46.9,36.4,42.4,31.9,36.9,31.9L36.9,31.9z"/>
</g>
</svg>
