<?xml version="1.0" encoding="iso-8859-1"?>
<!-- Generator: Adobe Illustrator 19.0.0, SVG Export Plug-In . SVG Version: 6.00 Build 0)  -->
<svg version="1.1" id="Capa_1" xmlns="http://www.w3.org/2000/svg" xmlns:xlink="http://www.w3.org/1999/xlink" x="0px" y="0px"
	 viewBox="0 0 426.667 426.667" style="enable-background:new 0 0 426.667 426.667;" xml:space="preserve">
<g>
	<g>
		<g>
			<path d="M277.333,0v149.333h149.333V0H277.333z M384,106.667h-64v-64h64V106.667z"/>
			<rect x="0" y="192" width="85.333" height="42.667"/>
			<rect x="128" y="192" width="64" height="42.667"/>
			<rect x="192" y="149.333" width="42.667" height="42.667"/>
			<path d="M149.333,85.333V0H0v149.333h149.333H192v-64H149.333z M106.667,106.667h-64v-64h64V106.667z"/>
			<rect x="192" y="0" width="42.667" height="85.333"/>
			<polygon points="298.667,234.667 341.333,234.667 341.333,298.667 384,298.667 384,192 234.667,192 234.667,234.667 256,234.667 
				256,277.333 298.667,277.333 			"/>
			<rect x="213.333" y="277.333" width="42.667" height="64"/>
			<rect x="384" y="298.667" width="42.667" height="42.667"/>
			<polygon points="298.667,341.333 256,341.333 256,384 213.333,384 213.333,426.667 298.667,426.667 298.667,384 341.333,384 
				341.333,426.667 405.333,426.667 405.333,384 384,384 384,341.333 341.333,341.333 			"/>
			<path d="M149.333,341.333v-64H0v149.333h149.333V384h64v-42.667H149.333z M106.667,384h-64v-64h64V384z"/>
		</g>
	</g>
</g>
<g>
</g>
<g>
</g>
<g>
</g>
<g>
</g>
<g>
</g>
<g>
</g>
<g>
</g>
<g>
</g>
<g>
</g>
<g>
</g>
<g>
</g>
<g>
</g>
<g>
</g>
<g>
</g>
<g>
</g>
</svg>
